<svg xmlns="http://www.w3.org/2000/svg" viewBox="0 0 282.1186 62.9262">
  <defs>
    <style>
.cls-1{fill:#006c66;}
</style>
  </defs>
  <g id="Minerva">
    <path class="cls-1" d="M41.991,10.615a31.4631,31.4631,0,1,0,31.4646,31.4621A31.49873,31.49873,0,0,0,41.991,10.615Zm0,62.0478a30.5842,30.5842,0,1,1,30.5843-30.5857A30.61875,30.61875,0,0,1,41.991,72.66283Z" transform="translate(-10.5264 -10.61503)"/>
    <path class="cls-1" d="M60.4522,39.67273c-.4357-.9107-.1372-1.5078-.2665-2.1736-.0955-.491-.8264-2.1089-1.2922-3.2292-.2193-.5274,1.1278-.398.1327-2.3029-.0285-.0568,1.3836-.5781-.0285-1.649a7.82347,7.82347,0,0,1-1.7816-1.9996.30261.30261,0,0,1,.0094-.3886,1.32591,1.32591,0,0,0-.052-2.2531c-.62559-.3768-1.3438.0053-2.0045.4335-.2175.1411-.3269.2275-.5544.1351a4.25509,4.25509,0,0,1-.5388-.3421,2.37615,2.37615,0,0,0,.9093-1.6942,4.37256,4.37256,0,0,0-3.039.2978c-.0363-.0205-.07519-.0419-.11719-.0645a2.14144,2.14144,0,0,0,.24819-2.0707l-.0035-.0022a24.173,24.173,0,0,1,3.6938-3.9963l.0273-.0298c.0794-.0804.1088-.1701-.0429-.2648-.12789-.0806-.1635-.0995-.3197-.1848a27.67747,27.67747,0,0,0-41.0945,24.1834,28.26268,28.26268,0,0,0,11.8079,22.6483,4.29488,4.29488,0,0,0,.8266.4874.27086.27086,0,0,0,.3236-.0589l.1083-.1421a.41182.41182,0,0,0,.097-.2544c0-.2019-.2924-.3828-.635-.8909a8.31541,8.31541,0,0,1-1.428-4.5383,6.573,6.573,0,0,1,1.3613-4.083c1.1038,1.1502,3.5113,3.2648,3.459,5.1884-.0587,2.1606-2.0797,2.054-1.6438,3.6746.2736,1.017,1.03441.598,1.1657,1.3694a2.97135,2.97135,0,0,0,2.8076,2.0731c.1895-.0284.351.1289.7258.5094a3.22711,3.22711,0,0,0,2.4331.3624c.5546-.1013,1.2514.4052,2.41121.2773,1.45179-.1602,1.82119-.2723,2.44089-.2813a74.60848,74.60848,0,0,1,10.81011.5352c.69929.1095.921-.2056.60769-.7512a8.54454,8.54454,0,0,1-.8263-7.4719,9.44486,9.44486,0,0,0,6.48761-1.1984,3.37527,3.37527,0,0,0,1.52039-2.8541,7.14492,7.14492,0,0,1-.14339-2.0192c.21679-.8158.37529-.7967.61079-.9622,1.0829-.7618.301-1.366.1343-1.4274a.98913.98913,0,0,0,.308-1.3739c-.1938-.2064-.7836-1.864-.1035-2.2092.73441-.3728,1.5719-.531,2.4158-.9015a1.36185,1.36185,0,0,0,.712-1.8163C62.735,44.88913,60.5197,39.814,60.4522,39.67273ZM29.9223,64.293c-.2122.0419-.89139.068-.7391-.8245.094-.5512.6918-.7819.995-.4691C30.1136,63.42733,29.966,63.84553,29.9223,64.293Zm26.0689-37.7445c.35771-.2251.7424-.3209.969-.0971.7865.7771-.853,1.2131-.5117,1.8101a9.12669,9.12669,0,0,0,2.2365,2.5209c.3696.2843.4232.9246-.9889,1.217-1.4214.2943-7.0815,1.7858-10.0679,4.9499-3.7391,3.9616-6.1157,9.0929-6.4401,8.3874-.3268-.7108-1.0759-.8256-.9588-1.0274C45.5977,35.05893,54.0114,27.79413,55.9912,26.54853Zm2.4616,6.4989c-.3082.882-2.746,1.6655-2.6305,1.0458.052-.2796.0058-.6479.1917-.6797.2701-.0462,1.0406-.3152,2.2382-.6218C58.372,32.761,58.5293,32.82873,58.4528,33.04743ZM52.2691,34.649c-.0618-.3606,2.5591-1.242,2.6501-.9812.1682.4813-.5415,1.7742-1.419,2.0973-.9965.367-1.4111.2581-1.3732.1159A3.85949,3.85949,0,0,0,52.2691,34.649Zm-6.0827,13.6663c-1.2051.7387-1.859-.6734-2.0296-.9198a1.1896,1.1896,0,0,1-.1611-.9477,7.612,7.612,0,0,0-.1232-2.7862c-.1209-.7919,1.51741-2.756,1.8859-3.099.3832-.3566.9398.1776.976.7577a2.35307,2.35307,0,0,1-1.1816,2.1525c-.7753.5774-.9226,1.329-.7753,1.5298.0576.0785.4052.0807.5582-.2451.4671-.9942,1.8018-1.4947,2.0148-2.0152a2.63527,2.63527,0,0,0,.0569-1.6774c-.0284-.2985.2634-.3741.4833-.3412.2843.0427.4106.4284.5544.8032.86281,2.2485-1.3084,3.6076-1.6583,4.1401C46.6255,45.91243,47.1233,47.74093,46.1864,48.31533Zm1.8177-8.7198c-.6461.4388-1.5773-.1558-1.39119-.4215a13.05713,13.05713,0,0,1,3.43859-3.3025c1.0282-.6397,1.1372-.6847,1.191-.3231a3.079,3.079,0,0,1-.7851,2.2477,2.4538,2.4538,0,0,1-1.73049.7701C48.4878,38.61983,48.502,39.25733,48.0041,39.59553Zm-5.7711,7.6768c-.2964-.065-.4076-.6444-.3472-.8734a8.66769,8.66769,0,0,1,1.1979-1.9313c.0704-.0921.2141-.0072.2296.1038C43.48391,45.79393,43.3122,47.50913,42.233,47.27233Zm9.64-22.2148a5.48755,5.48755,0,0,1,2.2436-.482c.2459.0293-.5474,1.4395-1.9612,2.0465a6.39418,6.39418,0,0,1-2.6692.6778C49.2998,27.20763,50.72091,25.57653,51.873,25.05753ZM26.9155,48.50563a2.4656,2.4656,0,0,0-.8753-.7412,6.73658,6.73658,0,0,0-1.0622,2.6791,19.02137,19.02137,0,0,1-2.2427-8.3664c-.4182-10.6085,8.4665-19.1511,19.3081-19.1132a17.15044,17.15044,0,0,1,6.7279,1.3676,7.81342,7.81342,0,0,0-1.103,1.9901c-.0113-.5751-.1621-1.0217-.1201-1.3809.0259-.221-1.5358.2653-2.9231,2.4736a5.35032,5.35032,0,0,0-.6458,1.6005,3.30046,3.30046,0,0,0-.2801-1.4589,4.82276,4.82276,0,0,0-2.5507,2.6258,6.03255,6.03255,0,0,0-.3277,1.0273,2.06891,2.06891,0,0,0-.2692-.976,4.74355,4.74355,0,0,0-2.58069,2.6736,5.03125,5.03125,0,0,0-.33811,1.3735c-.147-.6915-.4147-1.1151-.4995-1.0076-.5729.7265-1.6915,1.0487-2.2861,2.8801a4.31509,4.31509,0,0,0-.2022,1.2605c-.2467-.6197-.5927-.9767-.6727-.96a6.11475,6.11475,0,0,0-2.1047,3.2594,4.95893,4.95893,0,0,0,.0451,1.7297,7.47353,7.47353,0,0,1-.9267-1.4359,4.57334,4.57334,0,0,0-1.743,3.2111,6.63644,6.63644,0,0,0,.21991,1.8312,2.42071,2.42071,0,0,0-1.22561-1.2238,5.53873,5.53873,0,0,0-1.4406,3.3069A3.54031,3.54031,0,0,0,26.9155,48.50563Zm22.1977-23.8738a5.45129,5.45129,0,0,1,2.4641-1.7248,3.802,3.802,0,0,1-1.1779,2.5844,9.62167,9.62167,0,0,1-2.5738,1.8227A5.96244,5.96244,0,0,1,49.1132,24.63183Zm-2.7672,3.9046a6.50115,6.50115,0,0,0-1.6873,1.9035c-.16479.2682-.5661-1.4902.51-3.1778a5.7152,5.7152,0,0,1,1.9434-1.8381C47.017,25.83613,47.7486,27.39913,46.346,28.53643Zm-3.0355,2.2505c-1.0138,1.5113-1.0713.9949-2.1805,2.473a7.22533,7.22533,0,0,1,.3128-2.8141,4.94788,4.94788,0,0,1,1.8677-2.2456A3.05472,3.05472,0,0,1,43.3105,30.78693Zm-3.3181,3.0226c-.52149.9096-.99549.7012-1.8631,1.9919-.0958.1425-.3253-1.0678.1945-2.7025a3.92672,3.92672,0,0,1,1.7729-2.0751C40.2957,30.97643,40.6122,32.72823,39.9924,33.80953Zm-3.0906,3.2026a5.86713,5.86713,0,0,1-1.4885,1.914c-.106.1239-.5673-1.0989-.1205-2.6357a4.38539,4.38539,0,0,1,1.5805-2.1019C37.0307,34.02383,37.4658,35.784,36.9018,37.01213Zm-2.5124,1.9803a2.75669,2.75669,0,0,1-.1444.8987,6.60182,6.60182,0,0,1-1.562,2.4366,3.9727,3.9727,0,0,1-.4767-1.7556,4.4608,4.4608,0,0,1,1.5542-3.3359C33.988,37.22673,34.3894,38.18353,34.3894,38.99243Zm-2.5597,3.8375a4.55144,4.55144,0,0,1-1.51979,3.2408,5.26666,5.26666,0,0,1-.66071-2.2743A3.46348,3.46348,0,0,1,30.711,40.878C30.8722,41.41813,31.8451,41.84563,31.8297,42.82993ZM28.2075,44.706a2.73963,2.73963,0,0,1,1.2221,2.4541,3.474,3.474,0,0,1-1.3612,2.8236c-.2782-1.0897-.80549-1.3184-.7956-2.3996A5.60291,5.60291,0,0,1,28.2075,44.706Zm2.1812,3.7616a5.814,5.814,0,0,1,2.9331-.4466,3.81161,3.81161,0,0,1-1.7722,2.4617,4.50523,4.50523,0,0,1-2.97169.6096A3.62345,3.62345,0,0,1,30.3887,48.46763Zm-.1043-1.0138a4.45122,4.45122,0,0,1,2.1232-2.5075h0a5.6413,5.6413,0,0,1,2.8066-.4393c.1612.0663-.5096,1.6739-1.7444,2.2646C32.0886,47.43243,31.53591,47.04643,30.2844,47.45383Zm2.0573-3.5343a6.416,6.416,0,0,1,2.2279-2.4825,5.36975,5.36975,0,0,1,2.6639-.3979,3.74777,3.74777,0,0,1-1.865,2.2769A5.5326,5.5326,0,0,1,32.3417,43.91953Zm2.6734-3.5816a6.96047,6.96047,0,0,1,2.5029-2.473,4.52023,4.52023,0,0,1,2.5123-.3032,3.44368,3.44368,0,0,1-1.9246,2.2361A7.03359,7.03359,0,0,1,35.0151,40.33793Zm3.2044-3.5437a5.10908,5.10908,0,0,1,2.21841-2.3499,4.93459,4.93459,0,0,1,2.664-.0189c.28439.0189-.39821,1.3549-1.99091,1.9424A6.234,6.234,0,0,1,38.2195,36.79423Zm3.5965-3.4124a6.15836,6.15836,0,0,1,2.4351-2.185,5.34225,5.34225,0,0,1,2.745-.0684c.153.0642-.8254,1.525-2.3227,1.9746A6.77363,6.77363,0,0,1,41.816,33.38183Zm3.6321-2.9515c-.1568-.1095,1.2784-1.7149,2.4469-2.1594a5.18014,5.18014,0,0,1,2.476-.2975,3.96662,3.96662,0,0,1-2.1265,2.0059A5.47842,5.47842,0,0,1,45.4481,30.43033ZM25.5724,63.15573A27.14685,27.14685,0,0,1,15.216,42.07713a26.80429,26.80429,0,0,1,26.775-26.7735,27.09,27.09,0,0,1,12.41991,3.0545.12206.12206,0,0,1,.02389.2001,27.787,27.787,0,0,0-3.0507,3.4146,21.97209,21.97209,0,0,0-9.3931-2.0857,22.217,22.217,0,0,0-22.1926,22.19,21.599,21.599,0,0,0,5.3407,14.4374,7.25687,7.25687,0,0,0-.5573,2.8269A7.65,7.65,0,0,0,25.5724,63.15573Zm.0432-7.4458-.0133.012a20.75275,20.75275,0,0,1-4.9236-13.6448A21.33463,21.33463,0,0,1,41.991,20.76633a21.11692,21.11692,0,0,1,8.8685,1.9262,5.79624,5.79624,0,0,0-1.2249.7777,19.101,19.101,0,0,0-7.6436-1.5267,20.15828,20.15828,0,0,0-20.13609,20.1336,19.20833,19.20833,0,0,0,4.44519,12.597C26.1295,54.93263,25.8903,55.296,25.6156,55.70993Zm1.0612-1.6723a4.06683,4.06683,0,0,1-1.31489-2.5025c-.004-.0593-.00591-.1166-.00581-.1749a5.61459,5.61459,0,0,1,.7096-2.7031c.1421-.1421,1.5989.9907,1.6211,2.6152A4.29509,4.29509,0,0,1,26.6768,54.03763Zm2.4036-2.1589a5.0305,5.0305,0,0,1,2.7872-.3411,4.77467,4.77467,0,0,1-1.8533,2.4067,3.715,3.715,0,0,1-2.6309.3885C28.085,53.56533,27.9375,52.42293,29.0804,51.87873Zm1.5646,13.9188a3.18023,3.18023,0,0,1,.1516-2.1703c.51931-.2533,1.469-.3506,1.48531-.0476a8.26471,8.26471,0,0,0,.08789,3.0613C32.27491,66.86613,30.9795,66.76883,30.645,65.79753Zm.086-3.3116c-.1018-.5947.4701-1.1656.4581-2.4632-.0148-1.5915-1.9775-3.774-3.3067-5.1767a5.70413,5.70413,0,0,0,2.358-.5731A4.76253,4.76253,0,0,0,32.664,51.168a2.84473,2.84473,0,0,0-1.1165-.1413c.0728-.0353.1459-.0719.2197-.1115a4.6836,4.6836,0,0,0,2.3498-3.3309,5.13613,5.13613,0,0,0-1.1943-.078q.28382-.09495.5855-.2147a4.34124,4.34124,0,0,0,2.5469-3.1659,3.56519,3.56519,0,0,0-1.0379-.1299c.1813-.0703.3669-.151.5564-.2451a4.63066,4.63066,0,0,0,2.4205-3.088,3.43471,3.43471,0,0,0-.9747-.1119,7.21094,7.21094,0,0,0,1.3493-.4393,4.342,4.342,0,0,0,2.5638-2.8757,2.83125,2.83125,0,0,0-.8868-.1703,12.54622,12.54622,0,0,0,1.30221-.3712,4.17772,4.17772,0,0,0,2.66419-2.5816c-.2675-.0247-.6364-.1547-1.1136-.2381a7.44771,7.44771,0,0,0,1.9573-.4001c2.1403-.7234,2.8988-2.0123,2.9369-2.571a1.5651,1.5651,0,0,0-.6729-.2404,7.279,7.279,0,0,0,1.389-.3752,5.69494,5.69494,0,0,0,2.8964-2.936,11.29039,11.29039,0,0,0,1.1649-.452,6.11724,6.11724,0,0,0,.575-.2976c.0975.0742.2532.1857.4852.3349.3021.194.4089.2397.2593.3671a76.166,76.166,0,0,0-14.12269,16.6708c-.06251.0999-.17981.0821-.36851.0696-2.38249-.158-3.733,2.678-2.6668,5.3363a5.93374,5.93374,0,0,1-1.3509,1.6603c-.0853.0758-.3133.4077.0738.3729.55641-.0501,1.26741-.9414,1.6072-1.3422.14121.1756.6651.6119.4127.8596a19.13942,19.13942,0,0,1-4.1857,3.1327c-.75779.3702,1.265.6261,4.7123-2.4908.20291-.1834.4435.7193.7513,1.1057-.5921,1.9544.8674,5.7262.64,6.9096a.86453.86453,0,0,1-.852.8058c-3.4161.0702-3.7515-.0865-5.4891.4257-.8111.2391-.5978.7743-.0094.6143.6662-.1811,1.3655-.4514,5.0644-.2205.9033.0564,1.9366-.1829,1.9433-1.7092.0061-1.3838-1.0932-5.5101-.7218-6.0747a1.97075,1.97075,0,0,0,1.0329.4168c-.0491,1.3457,2.118,5.6944,1.1529,8.0931-.35859.8911-1.93159.8247-4.6231.5581C32.3101,62.04463,30.825,63.03493,30.731,62.48593Zm10.52,2.9584a1.67589,1.67589,0,0,1-2.1912-1.915c.1762-.2697,1.3008.3064,2.1762-.258C41.9104,62.83653,42.2827,65.08673,41.251,65.44433Zm-8.0867,1.3004c-.2496-1.1023-.3491-3.0132.109-3.4386.09061-.0841,1.462-.2806,1.437.0327-.1053,1.3163-.6372,2.7858.3649,4.2499C35.4498,68.136,33.499,68.22343,33.1643,66.74473Zm3.3982,1.2599c-.47859-.1187-1.7987-2.2206-.7241-4.728.1137-.2653,1.7607-.1003,2.03651-.017s-.22641,2.0545,2.03639,2.9278C40.1426,66.27663,39.9016,68.83253,36.5625,68.00463Zm14.1573-7.0035c-.7652,2.6482-1.1507,3.7054-.0014,6.5813.1528.3823.2678.6703-.06749.6127C48.336,67.798,47.8362,67.418,40.5674,68.034c-.523.0443.1706-1.014.0853-1.7343a2.06587,2.06587,0,0,0,1.9498-1.4695c.273-1.312-.6414-2.2748-.5449-2.4631,1.0307-2.0094-.0666-4.2365-.9379-7.9686-.0816-.3498.1207-.5025.2738-.3368,4.6705,5.0545,7.6463,6.0591,9.2546,6.5366C50.80791,60.64573,50.7763,60.82753,50.7198,61.00113Zm11.9433-13.8049c-.9763.8627-2.476.9338-3.0821,1.4855-.3163.288-.4588.7402-.1174,1.5481.1965.4654.3326.5229-.3372.7019-1.08749.2906-1.2366,1.7188-2.6211,1.4567-.5546-.105-.1566.2504.04261.2692a1.51725,1.51725,0,0,0,1.38439-.4085,3.83163,3.83163,0,0,1,1.0742-.89c.4387-.1661.8827-.155.89041.1737.00589.2506-.54851.6486-.78151.7566.2828.1479,1.1499.5886.41051,1.0908-.57671.3918-1.37081-.1511-1.48531-.2179-.17069-.0995-.4976-.0498-.3893.0828.428.5236,1.5762.3863,1.3702.6635-1.05959,1.4248-.19659,2.2568-.5189,3.6889-.327,1.4523-2.3135,2.247-3.8431,2.5229-5.2027.9386-10.2634-3.4872-13.2297-6.8231.27011-.6326.2355-1.4593-.0356-1.1656-.2558.2771-.2132.7392-.8316.8953-1.1922.3011-1.7056-1.7698-2.0754-2.1321a4.46138,4.46138,0,0,1-1.1584-5.1793,1.91747,1.91747,0,0,1,3.41511-.345c.90149,1.3331.48449,2.0913.99629,2.4893a1.50607,1.50607,0,0,0,1.6371.0071c.5473-.1492.5054,1.2976,2.3751,1.2306,2.0104-.072,1.7829-3.1994,2.0672-3.4766,2.5802-2.5157,1.2628-4.7612.7942-5.2829-.126-.1403.2862-1.0643.4382-1.0979a3.93642,3.93642,0,0,0,2.8333-2.3262s2.5161-.0427,3.41161-1.8551c.23939-.4845.98069.4671,2.66119-.8536a.26061.26061,0,0,1,.4386.096c1.0796,2.6482,1.5345,3.3803,1.45121,4.7304-.06061.9819,2.61979,6.4315,2.81519,6.903C62.88091,46.45973,62.9136,46.97493,62.6631,47.19623Z" transform="translate(-10.5264 -10.61503)"/>
    <path class="cls-1" d="M56.6076,37.59573c-1.4648.0542-3.16569,1.8487-3.7216,2.0976-.5832.2612-.3753.4263-.0365.3028.7297-.2661,1.7687-1.3798,3.20441-1.8987,1.13339-.4096,1.05959.5233,1.48559.4718C57.7385,38.54523,57.4542,37.56443,56.6076,37.59573Z" transform="translate(-10.5264 -10.61503)"/>
    <path class="cls-1" d="M56.93891,39.03173c-.12091.0288.12789.6543-.50891.6935-1.3774.0849-2.468,1.3886-3.3074,1.7799a4.18788,4.18788,0,0,1-1.1391.4185c-.1123.0301-.07.1738.0223.1861,3.5115.4692,4.8604.3409,4.8904.2133.0569-.2417-.1954-.3625-.1431-.5175a3.191,3.191,0,0,0,.0475-1.6411c-.0643-.2403.5199-.0794.5199-.4033C57.3205,39.58653,57.1442,38.98263,56.93891,39.03173Zm-.54031,2.7724c-.0669.2741-1.6346.1493-2.4876.0747-.2027-.0178-.5436-.0489.1066-.4372a6.4102,6.4102,0,0,1,2.1359-.999.221.221,0,0,1,.2605.1807A2.81621,2.81621,0,0,1,56.3986,41.80413Z" transform="translate(-10.5264 -10.61503)"/>
    <path class="cls-1" d="M60.9831,46.80523a6.47548,6.47548,0,0,0-1.7556.7491c-.23459.1492-1.3339.8268-1.255-.2453.0276-.3758.27141-1.3078.2655-1.5619-.00909-.3875-.3196-.2345-.3254-.0053a10.22931,10.22931,0,0,1-.2322,1.5779.74085.74085,0,0,0,1.1041.8198,8.74636,8.74636,0,0,1,2.1632-1.0168C61.1344,47.087,61.168,46.80793,60.9831,46.80523Z" transform="translate(-10.5264 -10.61503)"/>
    <path class="cls-1" d="M40.6455,50.64233c-.2079-.0782-.1501.3507-.4312.3034-.3681-.062-.05939-.3932-.5387-.9008-.2384-.2523-.8374-.3589-1.2794-1.0661-.6995-1.1192-.0986-3.6133.924-3.2553.5686.199.4691,1.521.2985,2.4166-.105.5516.7533.8241.831.6313.1307-.3242-.3156-.2931-.4179-.5891-.1572-.4545,1.05111-2.2741-.52789-2.801-1.15331-.3848-1.91181,1.0668-1.773,2.6728a2.35539,2.35539,0,0,0,1.53239,2.1046c.6953.2579.1682,1.2095,1.1057,1.2139C40.78391,51.37453,40.8698,50.72663,40.6455,50.64233Z" transform="translate(-10.5264 -10.61503)"/>
    <path class="cls-1" d="M49.8708,20.62373a.12156.12156,0,0,0,.1374-.0386l1.9501-2.4676a.12239.12239,0,0,0-.049-.189q-.164-.06735-.3305-.132a.12291.12291,0,0,0-.1407.0383l-1.9591,2.4775a.12172.12172,0,0,0,.0553.1904Q49.7029,20.562,49.8708,20.62373Z" transform="translate(-10.5264 -10.61503)"/>
    <path class="cls-1" d="M46.252,19.61813c.1123.0213.22391.0437.3356.0671a.122.122,0,0,0,.1382-.0735l1.1417-2.825a.12192.12192,0,0,0-.0861-.1648c-.1266-.0283-.2527-.0548-.37949-.0813a.07281.07281,0,0,0-.08281.0437c-.1447.3584-.9397,2.3274-1.1584,2.869A.1216.1216,0,0,0,46.252,19.61813Z" transform="translate(-10.5264 -10.61503)"/>
    <path class="cls-1" d="M42.23091,19.22333q.16994.00135.33919.0058a.12127.12127,0,0,0,.1241-.1101l.2821-2.999a.12229.12229,0,0,0-.118-.1336q-.17145-.0051-.3428-.0088a.12236.12236,0,0,0-.1242.111l-.2809,3.0019A.12155.12155,0,0,0,42.23091,19.22333Z" transform="translate(-10.5264 -10.61503)"/>
    <path class="cls-1" d="M38.3227,19.51673c.1118-.0178.2234-.035.3355-.0515a.12184.12184,0,0,0,.1022-.1435l-.5714-2.9562a.12255.12255,0,0,0-.13809-.098q-.16936.02535-.33811.0536a.12239.12239,0,0,0-.0998.1439l.5707,2.9548A.12165.12165,0,0,0,38.3227,19.51673Z" transform="translate(-10.5264 -10.61503)"/>
    <path class="cls-1" d="M34.33191,20.42963a.12173.12173,0,0,0,.14919.0604q.16172-.05625.32381-.1105a.12168.12168,0,0,0,.07059-.1697l-1.3533-2.716a.12274.12274,0,0,0-.1499-.0611c-.1088.0379-.2167.0765-.3247.1157a.12233.12233,0,0,0-.0676.1694Z" transform="translate(-10.5264 -10.61503)"/>
    <path class="cls-1" d="M30.6041,22.15293a.12113.12113,0,0,0,.1515.0253q.14985-.0855.3019-.1683a.12159.12159,0,0,0,.0337-.187l-2.0239-2.312a.12256.12256,0,0,0-.154-.0251q-.15.0882-.2986.1778a.12228.12228,0,0,0-.0287.1852Z" transform="translate(-10.5264 -10.61503)"/>
    <path class="cls-1" d="M27.1394,24.59963a.12137.12137,0,0,0,.14751-.0068q.13513-.1134.27179-.2252a.12169.12169,0,0,0-.0074-.1944l-2.5579-1.7769a.12238.12238,0,0,0-.1503.0083q-.1329.1161-.26419.2341a.12238.12238,0,0,0,.01239.1913Z" transform="translate(-10.5264 -10.61503)"/>
    <path class="cls-1" d="M24.1194,27.71143a.1212.1212,0,0,0,.1384-.0371q.112-.1386.2267-.2747a.12149.12149,0,0,0-.04859-.1919l-2.94111-1.1452a.12256.12256,0,0,0-.1413.0388q-.109.1407-.2159.2832a.12221.12221,0,0,0,.0536.1872Z" transform="translate(-10.5264 -10.61503)"/>
    <path class="cls-1" d="M18.562,30.92673l3.1523.4401a.121.121,0,0,0,.1238-.0634q.085-.16.1733-.3183a.1216.1216,0,0,0-.08949-.1798l-3.16831-.4409a.12225.12225,0,0,0-.1262.0663q-.08024.1605-.1588.3218A.12244.12244,0,0,0,18.562,30.92673Z" transform="translate(-10.5264 -10.61503)"/>
    <path class="cls-1" d="M16.8378,35.70523l3.21411-.3078a.12178.12178,0,0,0,.10469-.0851c.0364-.1169.0736-.2341.1117-.3503a.12206.12206,0,0,0-.1273-.1599l-3.2328.3085a.12262.12262,0,0,0-.1065.0894q-.0483.1761-.0941.3532A.12236.12236,0,0,0,16.8378,35.70523Z" transform="translate(-10.5264 -10.61503)"/>
    <path class="cls-1" d="M19.2767,39.525q.02085-.18705.0446-.3745a.12164.12164,0,0,0-.1605-.1308l-3.1326,1.0894a.12257.12257,0,0,0-.082.107q-.0129.18465-.0232.3699a.12237.12237,0,0,0,.1624.1219l3.1106-1.0816A.121.121,0,0,0,19.2767,39.525Z" transform="translate(-10.5264 -10.61503)"/>
    <path class="cls-1" d="M19.1984,43.80193q-.01423-.19335-.0257-.3876a.12169.12169,0,0,0-.1882-.0954l-2.8373,1.8634a.1226.1226,0,0,0-.0542.1183q.0243.1875.0514.3742a.12258.12258,0,0,0,.1883.0843l2.8114-1.8468A.121.121,0,0,0,19.1984,43.80193Z" transform="translate(-10.5264 -10.61503)"/>
    <path class="cls-1" d="M19.9084,48.07723c-.0346-.1307-.067-.262-.0986-.3934a.12205.12205,0,0,0-.209-.0537l-2.30789,2.5416a.12234.12234,0,0,0-.02521.1221q.06315.1833.12821.3659a.1224.1224,0,0,0,.20559.0405L19.8812,48.19A.12117.12117,0,0,0,19.9084,48.07723Z" transform="translate(-10.5264 -10.61503)"/>
    <path class="cls-1" d="M21.088,51.87133l-1.6275,3.0961a.12255.12255,0,0,0,.0025.1187q.1008.173.2048.3451a.12233.12233,0,0,0,.2127-.007l1.6101-3.0631a.12194.12194,0,0,0,.0011-.1114c-.0626-.125-.1252-.2498-.1862-.3756A.122.122,0,0,0,21.088,51.87133Z" transform="translate(-10.5264 -10.61503)"/>
    <path class="cls-1" d="M23.3771,55.35123a.122.122,0,0,0-.2168.0436l-.8716,3.5946a.123.123,0,0,0,.02621.1091q.13588.158.27429.3137a.12218.12218,0,0,0,.2101-.0523l.8613-3.5535a.12159.12159,0,0,0-.0212-.102Q23.5068,55.52923,23.3771,55.35123Z" transform="translate(-10.5264 -10.61503)"/>
  </g>
  <g id="MPI-INF">
    <path class="cls-1" d="M88.81166,51.21859h-4.207v4.21972h-.7627V46.41683h5.58984v.64453H84.60463v3.51269h4.207Z" transform="translate(-10.5264 -10.61503)"/>
    <path class="cls-1" d="M98.28236,51.41683a5.21409,5.21409,0,0,1-.43066,2.1875,3.28651,3.28651,0,0,1-1.23047,1.45019,3.365,3.365,0,0,1-1.84668.50782,3.2052,3.2052,0,0,1-2.55274-1.13086,4.52245,4.52245,0,0,1-.97265-3.05176V50.45a5.18234,5.18234,0,0,1,.43652-2.18359,3.45356,3.45356,0,0,1,4.91406-1.47168,3.29778,3.29778,0,0,1,1.23047,1.41894,5.111,5.111,0,0,1,.45215,2.125Zm-.7627-.97852a3.98657,3.98657,0,0,0-.7373-2.55371,2.65147,2.65147,0,0,0-4.02441.00391,4.016,4.016,0,0,0-.7461,2.58691v.94141a3.98535,3.98535,0,0,0,.74317,2.54394,2.654,2.654,0,0,0,4.04.01172,4.09077,4.09077,0,0,0,.7246-2.58008Z" transform="translate(-10.5264 -10.61503)"/>
    <path class="cls-1" d="M104.20716,51.67757h-2.62109v3.76074h-.76855V46.41683h2.93164a3.34193,3.34193,0,0,1,2.25488.69922,2.6703,2.6703,0,0,1,.30371,3.48437,2.59715,2.59715,0,0,1-1.36328.916l2.25586,3.84082v.08105h-.81152Zm-2.62109-.64453H103.922a2.16264,2.16264,0,0,0,1.543-.54688,2.06065,2.06065,0,0,0-.02442-2.89746,2.51728,2.51728,0,0,0-1.7041-.52734h-2.15039Z" transform="translate(-10.5264 -10.61503)"/>
    <path class="cls-1" d="M114.17591,55.43831h-.76171V46.41683h.76171Z" transform="translate(-10.5264 -10.61503)"/>
    <path class="cls-1" d="M123.97474,55.43831H123.213l-5.18652-7.7207v7.7207H117.258V46.41683h.76855l5.19238,7.72656V46.41683h.75586Z" transform="translate(-10.5264 -10.61503)"/>
    <path class="cls-1" d="M131.87123,51.21859h-4.207v4.21972h-.7627V46.41683h5.58984v.64453H127.6642v3.51269h4.207Z" transform="translate(-10.5264 -10.61503)"/>
    <path class="cls-1" d="M141.34193,51.41683a5.21409,5.21409,0,0,1-.43066,2.1875,3.28651,3.28651,0,0,1-1.23047,1.45019,3.365,3.365,0,0,1-1.84668.50782,3.2052,3.2052,0,0,1-2.55274-1.13086,4.52245,4.52245,0,0,1-.97265-3.05176V50.45a5.18234,5.18234,0,0,1,.43652-2.18359,3.45356,3.45356,0,0,1,4.91406-1.47168,3.29778,3.29778,0,0,1,1.23047,1.41894,5.111,5.111,0,0,1,.45215,2.125Zm-.7627-.97852a3.98657,3.98657,0,0,0-.7373-2.55371,2.65147,2.65147,0,0,0-4.02441.00391,4.016,4.016,0,0,0-.7461,2.58691v.94141a3.98535,3.98535,0,0,0,.74317,2.54394,2.654,2.654,0,0,0,4.04.01172,4.09077,4.09077,0,0,0,.7246-2.58008Z" transform="translate(-10.5264 -10.61503)"/>
    <path class="cls-1" d="M147.26771,51.67757h-2.62109v3.76074h-.76856V46.41683h2.93164a3.34194,3.34194,0,0,1,2.25489.69922,2.6703,2.6703,0,0,1,.30371,3.48437,2.59715,2.59715,0,0,1-1.36328.916l2.25586,3.84082v.08105h-.81153Zm-2.62109-.64453h2.33594a2.1626,2.1626,0,0,0,1.543-.54688,2.06064,2.06064,0,0,0-.02441-2.89746,2.5173,2.5173,0,0,0-1.7041-.52734h-2.15039Z" transform="translate(-10.5264 -10.61503)"/>
    <path class="cls-1" d="M153.59779,46.41683l3.32715,7.96191,3.33984-7.96191h1.0166v9.02148h-.76269V51.5096l.0625-4.02734-3.3584,7.95605h-.58887l-3.34668-7.9248.0625,3.97168v3.95312h-.76269V46.41683Z" transform="translate(-10.5264 -10.61503)"/>
    <path class="cls-1" d="M169.07142,52.90413h-4.0957l-.92969,2.53418h-.7998l3.41406-9.02148h.72559l3.41406,9.02148h-.793Zm-3.86035-.64453h3.61816l-1.80957-4.91406Z" transform="translate(-10.5264 -10.61503)"/>
    <path class="cls-1" d="M178.08314,47.06136h-3.0918v8.377h-.76171v-8.377h-3.08594v-.64453h6.93945Z" transform="translate(-10.5264 -10.61503)"/>
    <path class="cls-1" d="M181.10365,55.43831h-.76172V46.41683h.76172Z" transform="translate(-10.5264 -10.61503)"/>
    <path class="cls-1" d="M190.57338,52.62484a3.23187,3.23187,0,0,1-1.01954,2.18164,3.37036,3.37036,0,0,1-2.30175.75586,3.18125,3.18125,0,0,1-1.77539-.502,3.28069,3.28069,0,0,1-1.19239-1.42187,5.05537,5.05537,0,0,1-.42773-2.10352V50.36312a5.104,5.104,0,0,1,.42187-2.13086,3.23675,3.23675,0,0,1,1.21094-1.43457,3.29956,3.29956,0,0,1,1.81836-.50489,3.2303,3.2303,0,0,1,2.29.78028,3.271,3.271,0,0,1,.97559,2.16308h-.76856a2.29566,2.29566,0,0,0-2.49707-2.29882,2.36437,2.36437,0,0,0-1.9541.918,3.97278,3.97278,0,0,0-.72852,2.53614V51.495a4.01185,4.01185,0,0,0,.709,2.49317,2.28614,2.28614,0,0,0,1.918.92968,2.53945,2.53945,0,0,0,1.80371-.57324,2.74683,2.74683,0,0,0,.749-1.71972Z" transform="translate(-10.5264 -10.61503)"/>
    <path class="cls-1" d="M198.16615,53.21956a1.46152,1.46152,0,0,0-.52734-1.18652,5.56673,5.56673,0,0,0-1.92676-.83008,6.72129,6.72129,0,0,1-2.04492-.8584,2.08058,2.08058,0,0,1-.06446-3.40429,3.49752,3.49752,0,0,1,2.17774-.64747,3.60885,3.60885,0,0,1,1.60742.34668,2.63368,2.63368,0,0,1,1.10058.9668,2.54337,2.54337,0,0,1,.38965,1.38184h-.76758a1.89434,1.89434,0,0,0-.63281-1.48828,2.4589,2.4589,0,0,0-1.69726-.5625,2.672,2.672,0,0,0-1.64844.46191,1.44283,1.44283,0,0,0-.61328,1.207,1.3634,1.3634,0,0,0,.55176,1.123,5.08555,5.08555,0,0,0,1.76562.7666,8.349,8.349,0,0,1,1.84082.68848,2.61934,2.61934,0,0,1,.94141.85254,2.12821,2.12821,0,0,1,.3164,1.17089,2.03916,2.03916,0,0,1-.85254,1.71,3.62814,3.62814,0,0,1-2.24609.64454,4.39436,4.39436,0,0,1-1.75-.34082,2.67775,2.67775,0,0,1-1.209-.95411,2.467,2.467,0,0,1-.41211-1.40722h.76269a1.80071,1.80071,0,0,0,.71192,1.50586,3.01508,3.01508,0,0,0,1.89648.55175,2.81043,2.81043,0,0,0,1.69141-.46484A1.45218,1.45218,0,0,0,198.16615,53.21956Z" transform="translate(-10.5264 -10.61503)"/>
    <g id="MAX_PLANCK_INSTITUTE" data-name="MAX PLANCK INSTITUTE">
      <polygon id="M" class="cls-1" points="79.566 28.757 79.517 28.757 76.491 19.982 73.359 19.982 73.359 31.889 75.747 31.889 75.747 23.744 75.796 23.736 78.74 31.889 80.359 31.889 83.303 23.752 83.352 23.76 83.352 31.889 85.74 31.889 85.74 19.982 82.624 19.982 79.566 28.757"/>
      <path id="A" class="cls-1" d="M105.4577,30.59733h-2.445l-4.0152,11.9069h2.4938l.8017-2.5681h3.86l.8094,2.5681h2.4944Zm-2.57589,7.4665,1.3245-4.1954h.0494l1.3162,4.1954Z" transform="translate(-10.5264 -10.61503)"/>
      <polygon id="X" class="cls-1" points="110.671 31.889 106.934 25.887 110.467 19.982 107.687 19.982 105.454 24.202 103.254 19.982 100.49 19.982 104.023 25.887 100.4 31.889 103.189 31.889 105.487 27.596 107.784 31.889 110.671 31.889"/>
      <path id="P" class="cls-1" d="M136.6326,31.64413a4.69,4.69,0,0,0-3.2301-1.0468h-4.55519v11.9069h2.38849v-4.3179h2.1667a4.71349,4.71349,0,0,0,3.2301-1.0384,3.80419,3.80419,0,0,0,0-5.5038Zm-1.71709,4.1585a1.98471,1.98471,0,0,1-1.513.5436h-2.1667v-3.9087h2.1667a1.95137,1.95137,0,0,1,1.5172.5602,2.02368,2.02368,0,0,1,.51091,1.4185A1.93659,1.93659,0,0,1,134.91551,35.80263Z" transform="translate(-10.5264 -10.61503)"/>
      <polygon id="L" class="cls-1" points="136.591 30.057 132.214 30.057 132.214 19.982 129.826 19.982 129.826 31.889 136.591 31.889 136.591 30.057"/>
      <path id="A-2" data-name="A" class="cls-1" d="M152.63431,30.59733l-4.0152,11.9069h2.4938l.8018-2.5681h3.8599l.8094,2.5681h2.4944l-3.9991-11.9069Zm-.1308,7.4665,1.3245-4.1954h.0493l1.3162,4.1954Z" transform="translate(-10.5264 -10.61503)"/>
      <polygon id="N" class="cls-1" points="153.425 23.867 153.474 23.859 158.274 31.889 160.662 31.889 160.662 19.982 158.274 19.982 158.274 27.997 158.225 28.005 153.425 19.982 151.036 19.982 151.036 31.889 153.425 31.889 153.425 23.867"/>
      <path id="C" class="cls-1" d="M182.5087,31.48883a5.02551,5.02551,0,0,0-3.402-1.0634,4.37778,4.37778,0,0,0-3.36929,1.3864,5.035,5.035,0,0,0-1.284,3.5614v2.3635a4.9436,4.9436,0,0,0,1.3167,3.5614,4.5647,4.5647,0,0,0,3.45909,1.378,4.73358,4.73358,0,0,0,3.2955-1.0795,3.72553,3.72553,0,0,0,1.1616-2.985l-.0161-.0494h-2.3147a2.43553,2.43553,0,0,1-.52759,1.7218,2.09587,2.09587,0,0,1-1.59871.5603,2.0593,2.0593,0,0,1-1.76219-.8672,3.70282,3.70282,0,0,1-.634-2.2404v-2.3802a3.81318,3.81318,0,0,1,.6013-2.2279,1.92535,1.92535,0,0,1,1.67239-.863,2.30191,2.30191,0,0,1,1.7051.5602,2.33972,2.33972,0,0,1,.552,1.7052h2.3225l.016-.0494A3.65858,3.65858,0,0,0,182.5087,31.48883Z" transform="translate(-10.5264 -10.61503)"/>
      <polygon id="K" class="cls-1" points="185.655 19.982 182.703 19.982 179.44 24.848 178.77 24.848 178.77 19.982 176.381 19.982 176.381 31.889 178.77 31.889 178.77 26.917 179.645 26.917 182.932 31.889 185.974 31.889 181.534 25.519 185.655 19.982"/>
      <path id="I" class="cls-1" d="M206.44291,42.52533H203.9956V30.64743h2.44731Z" transform="translate(-10.5264 -10.61503)"/>
      <path id="N-2" data-name="N" class="cls-1" d="M219.6226,42.52533h-2.4483l-4.7637-7.8154v7.8154h-2.4472V30.64743h2.4472l4.7725,7.832v-7.832h2.4395Z" transform="translate(-10.5264 -10.61503)"/>
      <path id="S" class="cls-1" d="M229.0884,39.40913a1.25558,1.25558,0,0,0-.4893-1.0644,6.39382,6.39382,0,0,0-1.7627-.7833,12.49285,12.49285,0,0,1-2.0146-.8115,3.293,3.293,0,0,1-2.0235-2.9453,2.86313,2.86313,0,0,1,.543-1.7168,3.53372,3.53372,0,0,1,1.55761-1.1787,5.86143,5.86143,0,0,1,2.28029-.4248,5.34518,5.34518,0,0,1,2.2676.4609,3.61,3.61,0,0,1,1.5459,1.3018,3.40159,3.40159,0,0,1,.5508,1.9082h-2.4473a1.601,1.601,0,0,0-.5137-1.2686,2.11431,2.11431,0,0,0-1.4443-.4521,2.2571,2.2571,0,0,0-1.3945.3789,1.19573,1.19573,0,0,0-.4981.999,1.14647,1.14647,0,0,0,.584.9717,6.60179,6.60179,0,0,0,1.7168.7334,7.42163,7.42163,0,0,1,3.043,1.5586,3.10543,3.10543,0,0,1,.9541,2.3164,2.85886,2.85886,0,0,1-1.1661,2.4189,5.10678,5.10678,0,0,1-3.1406.877,6.06085,6.06085,0,0,1-2.4971-.502,3.9464,3.9464,0,0,1-1.7167-1.374,3.51972,3.51972,0,0,1-.5918-2.0234h2.456q0,1.96575,2.3496,1.9658a2.28858,2.28858,0,0,0,1.3623-.3545A1.15484,1.15484,0,0,0,229.0884,39.40913Z" transform="translate(-10.5264 -10.61503)"/>
      <path id="T" class="cls-1" d="M242.8081,32.62983h-3.6377v9.8955h-2.4473v-9.8955h-3.5898v-1.9824h9.6748Z" transform="translate(-10.5264 -10.61503)"/>
      <path id="I-2" data-name="I" class="cls-1" d="M247.6411,42.52533h-2.4473V30.64743h2.4473Z" transform="translate(-10.5264 -10.61503)"/>
      <path id="T-2" data-name="T" class="cls-1" d="M259.4487,32.62983H255.811v9.8955h-2.4472v-9.8955h-3.58989v-1.9824h9.67479Z" transform="translate(-10.5264 -10.61503)"/>
      <path id="U" class="cls-1" d="M270.6694,30.64743v7.8232a4.008,4.008,0,0,1-1.2197,3.084,4.70316,4.70316,0,0,1-3.333,1.1338,4.753,4.753,0,0,1-3.3037-1.1016,3.93644,3.93644,0,0,1-1.24809-3.0263v-7.9131h2.44729v7.8398a2.26636,2.26636,0,0,0,.5586,1.7012,2.14493,2.14493,0,0,0,1.5459.5342q2.064,0,2.0967-2.1699v-7.9053Z" transform="translate(-10.5264 -10.61503)"/>
      <path id="T-3" data-name="T" class="cls-1" d="M282.4526,32.62983h-3.63769v9.8955H276.3677v-9.8955h-3.5899v-1.9824h9.6748Z" transform="translate(-10.5264 -10.61503)"/>
      <path id="E" class="cls-1" d="M291.8296,37.37793h-4.6992v3.1816h5.5146v1.9658h-7.9619V30.64743h7.9453v1.9824h-5.498v2.8311h4.6992Z" transform="translate(-10.5264 -10.61503)"/>
    </g>
  </g>
</svg>
